<svg id="Layer_2" data-name="Layer 2" xmlns="http://www.w3.org/2000/svg" viewBox="0 0 686.86 327.39"><defs><style>.cls-1{fill:#dd2227;}</style></defs><title>Logo</title><path class="cls-1" d="M126.26,316H269.34v54.13H58.88v-327h67.38Z" transform="translate(-58.88 -42.76)"/><path class="cls-1" d="M527.24,359.1a84,84,0,0,1-24.53,11h34.13Z" transform="translate(-58.88 -42.76)"/><path class="cls-1" d="M495.75,339.32A52.77,52.77,0,0,0,506,334.37l-10.22-11.78Z" transform="translate(-58.88 -42.76)"/><path class="cls-1" d="M501.42,220.9a15.93,15.93,0,0,0-4.95-11.64c-.23-.23-.48-.44-.72-.65v27.13a19.63,19.63,0,0,0,5.67-14.84Z" transform="translate(-58.88 -42.76)"/><path class="cls-1" d="M726.65,117.76q-19.1-35.82-53.12-55.26T596.38,43.08H495.75V174.21a47.46,47.46,0,0,1,23.93,11.9q14,13,14,32.38,0,23.28-23.55,41.07L495.75,270v1.17l33,38.34a74.44,74.44,0,0,0,7.89-34.25h26.54V97.66h33.24q39.75,0,60.42,25.71T677.46,199v17.3q-.45,48.06-21.34,73.9T595.7,316H563.14v-.23a81.08,81.08,0,0,1-11.15,21l28.73,33.35h16.33q42.9-.23,77-19.77a134.38,134.38,0,0,0,52.9-55q18.75-35.49,18.75-81.08v-15Q745.74,153.58,726.65,117.76Z" transform="translate(-58.88 -42.76)"/><rect class="cls-1" x="204.1" y="273.9" width="27.53" height="53.49"/><path class="cls-1" d="M452.85,316q0,11.61,7.43,18.89t19.33,7.27c1.09,0,2.17,0,3.24-.11V307.7l-15.28-17.63-2.81,2Q452.85,302.21,452.85,316Z" transform="translate(-58.88 -42.76)"/><path class="cls-1" d="M206.14,304.83V280.39L199.4,126.31,264,304.83h93.29L422,126.09l-6.73,154.3v27.37a45.44,45.44,0,0,1,6.36-14.62q7.56-11.5,27.76-25.55a135.78,135.78,0,0,1-13.64-21.88,48.41,48.41,0,0,1-5-21.34q0-22.74,14.38-37,14.07-13.94,37.69-14.23V42.76H394.36L310.8,279.94l-84-237.18H138.75V304.83Z" transform="translate(-58.88 -42.76)"/><path class="cls-1" d="M465.43,223.84q0,10,11.77,25.29l5.65-3.75v-41a17.16,17.16,0,0,0-12.41,5.32Q465.43,215,465.43,223.84Z" transform="translate(-58.88 -42.76)"/><polygon class="cls-1" points="209.1 273.21 228.56 327.03 274.83 327.03 294.33 273.21 209.1 273.21"/><rect class="cls-1" x="79.87" y="273.21" width="67.38" height="53.82"/><path class="cls-1" d="M431.44,358.1a48.79,48.79,0,0,1-16.19-27.68v39.37h37.46A58.32,58.32,0,0,1,431.44,358.1Z" transform="translate(-58.88 -42.76)"/></svg>